<svg xmlns="http://www.w3.org/2000/svg" xmlns:xlink="http://www.w3.org/1999/xlink" width="500" zoomAndPan="magnify" viewBox="0 0 375 374.999991" height="500" preserveAspectRatio="xMidYMid meet" version="1.2"><defs><clipPath id="8af84db3bf"><path d="M 69.144531 10.761719 L 305.996094 10.761719 L 305.996094 270.261719 L 69.144531 270.261719 Z M 69.144531 10.761719 "/></clipPath><clipPath id="ea0e83aa05"><rect x="0" width="252" y="0" height="66"/></clipPath></defs><g id="7cef60b18b"><g clip-rule="nonzero" clip-path="url(#8af84db3bf)"><path style=" stroke:none;fill-rule:nonzero;fill:#f5f5f5;fill-opacity:1;" d="M 187.6875 270.476562 C 122.460938 270.476562 69.398438 217.414062 69.398438 152.1875 L 68.996094 57.058594 C 68.996094 31.601562 89.671875 10.921875 115.085938 10.921875 C 140.503906 10.921875 161.179688 31.601562 161.179688 57.015625 L 161.179688 151.980469 C 161.179688 157.5 156.703125 161.980469 151.183594 161.980469 C 145.664062 161.980469 141.183594 157.5 141.183594 151.980469 L 141.183594 57.015625 C 141.183594 42.625 129.476562 30.921875 115.085938 30.921875 C 100.699219 30.921875 88.992188 42.625 88.992188 57.015625 L 89.394531 152.144531 C 89.394531 206.390625 133.492188 250.480469 187.6875 250.480469 C 196.574219 250.480469 205.1875 249.292969 213.378906 247.074219 L 213.378906 57.015625 C 213.382812 31.601562 234.0625 10.921875 259.476562 10.921875 C 284.894531 10.921875 305.570312 31.601562 305.570312 57.015625 L 305.972656 152.144531 C 305.972656 203.195312 273.503906 246.78125 228.152344 263.347656 C 227.222656 263.851562 226.203125 264.21875 225.125 264.402344 C 213.355469 268.339844 200.765625 270.476562 187.6875 270.476562 Z M 259.476562 30.921875 C 245.085938 30.921875 233.378906 42.628906 233.378906 57.015625 L 233.378906 239.199219 C 264.628906 222.726562 285.980469 189.902344 285.980469 152.1875 L 285.578125 57.058594 C 285.578125 42.625 273.867188 30.921875 259.476562 30.921875 Z M 259.476562 30.921875 "/></g><g transform="matrix(1,0,0,1,61,298)"><g clip-path="url(#ea0e83aa05)"><g style="fill:#f5f5f5;fill-opacity:1;"><g transform="translate(1.132104, 50.950614)"><path style="stroke:none" d="M 34.15625 -40.375 L 34.15625 -13.78125 C 34.15625 -9.363281 32.773438 -5.867188 30.015625 -3.296875 C 27.253906 -0.734375 23.476562 0.546875 18.6875 0.546875 C 13.96875 0.546875 10.222656 -0.695312 7.453125 -3.1875 C 4.679688 -5.6875 3.269531 -9.113281 3.21875 -13.46875 L 3.21875 -40.375 L 11.53125 -40.375 L 11.53125 -13.71875 C 11.53125 -11.082031 12.160156 -9.15625 13.421875 -7.9375 C 14.691406 -6.726562 16.445312 -6.125 18.6875 -6.125 C 23.363281 -6.125 25.738281 -8.582031 25.8125 -13.5 L 25.8125 -40.375 Z M 34.15625 -40.375 "/></g></g><g style="fill:#f5f5f5;fill-opacity:1;"><g transform="translate(37.361507, 50.950614)"><path style="stroke:none" d="M 12.453125 0 L 4.125 0 L 4.125 -40.375 L 12.453125 -40.375 Z M 12.453125 0 "/></g></g><g style="fill:#f5f5f5;fill-opacity:1;"><g transform="translate(52.774001, 50.950614)"><path style="stroke:none" d="M 10.453125 -30 L 10.703125 -26.53125 C 12.847656 -29.207031 15.722656 -30.546875 19.328125 -30.546875 C 22.503906 -30.546875 24.867188 -29.613281 26.421875 -27.75 C 27.972656 -25.882812 28.769531 -23.09375 28.8125 -19.375 L 28.8125 0 L 20.796875 0 L 20.796875 -19.1875 C 20.796875 -20.882812 20.425781 -22.113281 19.6875 -22.875 C 18.945312 -23.644531 17.71875 -24.03125 16 -24.03125 C 13.738281 -24.03125 12.046875 -23.070312 10.921875 -21.15625 L 10.921875 0 L 2.90625 0 L 2.90625 -30 Z M 10.453125 -30 "/></g></g><g style="fill:#f5f5f5;fill-opacity:1;"><g transform="translate(83.431902, 50.950614)"><path style="stroke:none" d="M 12.671875 -37.375 L 12.671875 -30 L 17.796875 -30 L 17.796875 -24.125 L 12.671875 -24.125 L 12.671875 -9.15625 C 12.671875 -8.039062 12.882812 -7.242188 13.3125 -6.765625 C 13.738281 -6.285156 14.550781 -6.046875 15.75 -6.046875 C 16.632812 -6.046875 17.421875 -6.109375 18.109375 -6.234375 L 18.109375 -0.171875 C 16.535156 0.304688 14.914062 0.546875 13.25 0.546875 C 7.632812 0.546875 4.769531 -2.285156 4.65625 -7.953125 L 4.65625 -24.125 L 0.28125 -24.125 L 0.28125 -30 L 4.65625 -30 L 4.65625 -37.375 Z M 12.671875 -37.375 "/></g></g><g style="fill:#f5f5f5;fill-opacity:1;"><g transform="translate(101.477693, 50.950614)"><path style="stroke:none" d="M 21.046875 -3.046875 C 19.066406 -0.648438 16.332031 0.546875 12.84375 0.546875 C 9.625 0.546875 7.164062 -0.375 5.46875 -2.21875 C 3.78125 -4.0625 2.921875 -6.769531 2.890625 -10.34375 L 2.890625 -30 L 10.890625 -30 L 10.890625 -10.625 C 10.890625 -7.5 12.316406 -5.9375 15.171875 -5.9375 C 17.878906 -5.9375 19.742188 -6.878906 20.765625 -8.765625 L 20.765625 -30 L 28.8125 -30 L 28.8125 0 L 21.265625 0 Z M 21.046875 -3.046875 "/></g></g><g style="fill:#f5f5f5;fill-opacity:1;"><g transform="translate(132.107875, 50.950614)"><path style="stroke:none" d="M 11.53125 0 L 3.5 0 L 3.5 -30 L 11.53125 -30 Z M 3.015625 -37.765625 C 3.015625 -38.960938 3.414062 -39.945312 4.21875 -40.71875 C 5.03125 -41.5 6.128906 -41.890625 7.515625 -41.890625 C 8.878906 -41.890625 9.96875 -41.5 10.78125 -40.71875 C 11.59375 -39.945312 12 -38.960938 12 -37.765625 C 12 -36.546875 11.585938 -35.546875 10.765625 -34.765625 C 9.941406 -33.992188 8.851562 -33.609375 7.5 -33.609375 C 6.15625 -33.609375 5.070312 -33.992188 4.25 -34.765625 C 3.425781 -35.546875 3.015625 -36.546875 3.015625 -37.765625 Z M 3.015625 -37.765625 "/></g></g><g style="fill:#f5f5f5;fill-opacity:1;"><g transform="translate(146.023547, 50.950614)"><path style="stroke:none" d="M 12.671875 -37.375 L 12.671875 -30 L 17.796875 -30 L 17.796875 -24.125 L 12.671875 -24.125 L 12.671875 -9.15625 C 12.671875 -8.039062 12.882812 -7.242188 13.3125 -6.765625 C 13.738281 -6.285156 14.550781 -6.046875 15.75 -6.046875 C 16.632812 -6.046875 17.421875 -6.109375 18.109375 -6.234375 L 18.109375 -0.171875 C 16.535156 0.304688 14.914062 0.546875 13.25 0.546875 C 7.632812 0.546875 4.769531 -2.285156 4.65625 -7.953125 L 4.65625 -24.125 L 0.28125 -24.125 L 0.28125 -30 L 4.65625 -30 L 4.65625 -37.375 Z M 12.671875 -37.375 "/></g></g><g style="fill:#f5f5f5;fill-opacity:1;"><g transform="translate(164.069339, 50.950614)"><path style="stroke:none" d="M 16.890625 0.546875 C 12.484375 0.546875 8.898438 -0.800781 6.140625 -3.5 C 3.378906 -6.195312 2 -9.789062 2 -14.28125 L 2 -15.0625 C 2 -18.070312 2.578125 -20.765625 3.734375 -23.140625 C 4.898438 -25.515625 6.550781 -27.34375 8.6875 -28.625 C 10.820312 -29.90625 13.257812 -30.546875 16 -30.546875 C 20.101562 -30.546875 23.332031 -29.253906 25.6875 -26.671875 C 28.039062 -24.085938 29.21875 -20.421875 29.21875 -15.671875 L 29.21875 -12.390625 L 10.125 -12.390625 C 10.382812 -10.429688 11.164062 -8.859375 12.46875 -7.671875 C 13.769531 -6.492188 15.414062 -5.90625 17.40625 -5.90625 C 20.5 -5.90625 22.910156 -7.023438 24.640625 -9.265625 L 28.578125 -4.859375 C 27.378906 -3.148438 25.753906 -1.820312 23.703125 -0.875 C 21.648438 0.0703125 19.378906 0.546875 16.890625 0.546875 Z M 15.96875 -24.0625 C 14.375 -24.0625 13.082031 -23.523438 12.09375 -22.453125 C 11.113281 -21.378906 10.484375 -19.847656 10.203125 -17.859375 L 21.34375 -17.859375 L 21.34375 -18.5 C 21.3125 -20.269531 20.832031 -21.640625 19.90625 -22.609375 C 18.976562 -23.578125 17.664062 -24.0625 15.96875 -24.0625 Z M 15.96875 -24.0625 "/></g></g><g style="fill:#f5f5f5;fill-opacity:1;"><g transform="translate(193.618483, 50.950614)"><path style="stroke:none" d="M 14.3125 -9.78125 L 19.875 -30 L 28.25 -30 L 18.125 0 L 10.484375 0 L 0.359375 -30 L 8.734375 -30 Z M 14.3125 -9.78125 "/></g></g><g style="fill:#f5f5f5;fill-opacity:1;"><g transform="translate(221.171863, 50.950614)"><path style="stroke:none" d="M 16.890625 0.546875 C 12.484375 0.546875 8.898438 -0.800781 6.140625 -3.5 C 3.378906 -6.195312 2 -9.789062 2 -14.28125 L 2 -15.0625 C 2 -18.070312 2.578125 -20.765625 3.734375 -23.140625 C 4.898438 -25.515625 6.550781 -27.34375 8.6875 -28.625 C 10.820312 -29.90625 13.257812 -30.546875 16 -30.546875 C 20.101562 -30.546875 23.332031 -29.253906 25.6875 -26.671875 C 28.039062 -24.085938 29.21875 -20.421875 29.21875 -15.671875 L 29.21875 -12.390625 L 10.125 -12.390625 C 10.382812 -10.429688 11.164062 -8.859375 12.46875 -7.671875 C 13.769531 -6.492188 15.414062 -5.90625 17.40625 -5.90625 C 20.5 -5.90625 22.910156 -7.023438 24.640625 -9.265625 L 28.578125 -4.859375 C 27.378906 -3.148438 25.753906 -1.820312 23.703125 -0.875 C 21.648438 0.0703125 19.378906 0.546875 16.890625 0.546875 Z M 15.96875 -24.0625 C 14.375 -24.0625 13.082031 -23.523438 12.09375 -22.453125 C 11.113281 -21.378906 10.484375 -19.847656 10.203125 -17.859375 L 21.34375 -17.859375 L 21.34375 -18.5 C 21.3125 -20.269531 20.832031 -21.640625 19.90625 -22.609375 C 18.976562 -23.578125 17.664062 -24.0625 15.96875 -24.0625 Z M 15.96875 -24.0625 "/></g></g></g></g></g></svg>